<?xml version="1.0" encoding="utf-8"?>
<!-- Generator: Adobe Illustrator 16.0.0, SVG Export Plug-In . SVG Version: 6.00 Build 0)  -->
<!DOCTYPE svg PUBLIC "-//W3C//DTD SVG 1.1//EN" "http://www.w3.org/Graphics/SVG/1.1/DTD/svg11.dtd">
<svg version="1.1" id="Layer_1" xmlns="http://www.w3.org/2000/svg" xmlns:xlink="http://www.w3.org/1999/xlink" x="0px" y="0px"
	 width="300px" height="120px" viewBox="0 0 300 120" enable-background="new 0 0 300 120" xml:space="preserve">
<g>
	<g>
		<path fill="#536161" d="M118.007,37.048h-4.061v10.063h-2.362V35.029h6.423V37.048z"/>
		<path fill="#536161" d="M131.469,41.069c0,3.688-2.642,6.314-6.446,6.314c-3.819,0-6.461-2.626-6.461-6.314
			c0-3.679,2.642-6.321,6.461-6.321C128.827,34.749,131.469,37.391,131.469,41.069z M129.045,41.069
			c0-2.439-1.676-4.186-4.022-4.186c-2.362,0-4.021,1.747-4.021,4.186c0,2.456,1.66,4.179,4.021,4.179
			C127.369,45.248,129.045,43.525,129.045,41.069z"/>
		<path fill="#536161" d="M136.824,35.029c1.356,0,2.299,0.141,3.188,0.912c0.981,0.873,1.231,2.05,1.231,2.915
			c0,0.476-0.062,1.786-0.997,2.712c-0.664,0.67-1.669,1.068-3.064,1.068h-1.52v4.474h-2.354V35.029H136.824z M135.663,40.602h0.975
			c0.444,0,1.021,0,1.536-0.375c0.429-0.351,0.646-0.896,0.646-1.418c0-0.67-0.32-1.131-0.67-1.373
			c-0.491-0.343-1.107-0.389-1.667-0.389h-0.819V40.602z"/>
		<path fill="#536161" d="M155.367,41.069c0,3.688-2.666,6.314-6.469,6.314c-3.804,0-6.454-2.626-6.454-6.314
			c0-3.679,2.65-6.321,6.454-6.321C152.701,34.749,155.367,37.391,155.367,41.069z M152.936,41.069c0-2.439-1.668-4.186-4.037-4.186
			c-2.338,0-4.021,1.747-4.021,4.186c0,2.456,1.683,4.179,4.021,4.179C151.268,45.248,152.936,43.525,152.936,41.069z"/>
		<path fill="#536161" d="M166.516,35.029v10.055h1.246v4.747h-2.15v-2.72h-7.453v2.72h-2.166v-4.747
			c0.873,0.04,1.559-0.725,1.918-1.629c0.232-0.6,0.436-1.512,0.436-3.18v-5.246H166.516z M160.621,40.275
			c0,1.863-0.201,2.791-0.42,3.375c-0.25,0.67-0.592,1.107-0.936,1.434h4.895v-8.036h-3.539V40.275z"/>
		<path fill="#536161" d="M177.803,46.667c-0.734,0.39-1.684,0.717-2.994,0.717c-2.121,0-3.398-0.725-4.412-1.684
			c-1.402-1.341-1.949-2.845-1.949-4.63c0-2.19,0.904-3.757,1.949-4.731c1.201-1.138,2.713-1.589,4.428-1.589
			c0.842,0,1.871,0.147,2.979,0.748v2.76c-1.107-1.271-2.48-1.372-2.932-1.372c-2.416,0-4.006,1.995-4.006,4.233
			c0,2.682,2.072,4.131,4.115,4.131c1.121,0,2.121-0.491,2.822-1.325V46.667z"/>
		<path fill="#536161" d="M182.244,40.126l4.428-5.098h2.979l-5.113,5.573l5.408,6.509h-3.133l-4.303-5.417l-0.266,0.273v5.145
			h-2.354V35.029h2.354V40.126z"/>
		<path fill="#536161" d="M199.207,44.578h-4.863l-1.076,2.533h-2.559l5.238-12.339h1.762l5.1,12.339h-2.541L199.207,44.578z
			 M198.506,42.652l-1.699-4.341l-1.732,4.341H198.506z"/>
		<path fill="#536161" d="M212.35,47.111h-2.371v-4.669h-0.42l-3.07,4.669h-2.854l3.615-4.887c-0.482-0.086-0.965-0.281-1.324-0.554
			c-0.748-0.53-1.387-1.511-1.387-2.907c0-1.325,0.592-2.252,1.199-2.821c0.951-0.834,2.105-0.912,3.119-0.912h3.492V47.111z
			 M209.277,36.938c-0.451,0-2.291,0.024-2.291,1.824c0,1.824,1.84,1.824,2.322,1.824h0.67v-3.648H209.277z"/>
		<path fill="#536161" d="M113.946,58.257l4.443-5.106h2.97l-5.122,5.582l5.394,6.509h-3.125l-4.288-5.417l-0.272,0.272v5.145
			h-2.362V53.151h2.362V58.257z"/>
		<path fill="#536161" d="M133.067,53.151v12.091h-2.37V55.178h-3.507v5.371c0,1.248,0.039,2.9-1.302,4.007
			c-0.475,0.396-1.232,0.794-2.408,0.794c-0.343,0-0.67-0.039-1.006-0.108v-2.027c0.187,0.055,0.421,0.117,0.671,0.117
			c0.545,0,0.888-0.25,1.091-0.444c0.623-0.616,0.592-1.669,0.592-2.814v-6.922H133.067z"/>
		<path fill="#536161" d="M137.923,53.151v8.123l6.672-8.388h1.621v12.355h-2.354v-8.154l-6.665,8.386h-1.645V53.151H137.923z"/>
		<path fill="#536161" d="M151.066,57.829h5.129v-4.677h2.338v12.091h-2.338v-5.395h-5.129v5.395h-2.339V53.151h2.339V57.829z"/>
		<path fill="#536161" d="M163.396,53.151v8.123l6.672-8.388h1.607v12.355h-2.34v-8.154l-6.672,8.386h-1.621V53.151H163.396z"/>
		<path fill="#536161" d="M180.094,60.425c-0.514,0.054-1.543,0.125-2.137,0.125c-1.994,0-2.867-0.507-3.242-0.78
			c-1.059-0.794-1.199-1.941-1.199-2.9v-3.718h2.354v3.29c0,0.546,0.016,1.216,0.592,1.668c0.312,0.25,0.826,0.397,1.715,0.397
			c0.607,0,1.295-0.023,1.918-0.125v-5.23h2.369v12.091h-2.369V60.425z"/>
		<path fill="#536161" d="M191.676,55.178h-4.365v2.706h4.164v2.018h-4.164v3.313h4.365v2.027h-6.719V53.151h6.719V55.178z"/>
		<path fill="#536161" d="M202.465,64.806c-0.732,0.39-1.684,0.709-2.994,0.709c-2.135,0-3.428-0.717-4.426-1.684
			c-1.404-1.341-1.949-2.854-1.949-4.623c0-2.19,0.904-3.781,1.949-4.731c1.215-1.146,2.711-1.59,4.426-1.59
			c0.875,0,1.887,0.141,2.994,0.741v2.743c-1.107-1.271-2.479-1.348-2.916-1.348c-2.447,0-4.006,1.995-4.006,4.208
			c0,2.682,2.059,4.147,4.068,4.147c1.139,0,2.137-0.491,2.854-1.325V64.806z"/>
		<path fill="#536161" d="M206.908,58.257l4.412-5.106h2.992l-5.129,5.582l5.395,6.509h-3.117l-4.289-5.417l-0.264,0.272v5.145
			h-2.385V53.151h2.385V58.257z"/>
		<path fill="#536161" d="M223.854,62.709h-4.863l-1.076,2.533h-2.572l5.254-12.347h1.777l5.098,12.347h-2.541L223.854,62.709z
			 M223.168,60.775l-1.699-4.342l-1.746,4.342H223.168z"/>
		<path fill="#536161" d="M236.996,65.242h-2.354v-4.678h-0.438l-3.086,4.678h-2.822l3.602-4.896
			c-0.467-0.07-0.936-0.273-1.342-0.538c-0.717-0.53-1.355-1.528-1.355-2.923c0-1.317,0.561-2.253,1.201-2.807
			c0.934-0.841,2.088-0.928,3.117-0.928h3.477V65.242z M233.91,55.077c-0.406,0-2.262,0.016-2.262,1.809
			c0,1.824,1.855,1.824,2.309,1.824h0.686v-3.632H233.91z"/>
		<path fill="#536161" d="M111.584,71.275h6.992v2.027h-4.63v2.781h1.621c0.92,0,2.097,0.141,3.04,0.982
			c0.686,0.615,1.138,1.535,1.138,2.682c0,0.811-0.249,1.559-0.67,2.152c-0.919,1.309-2.432,1.48-3.476,1.48h-4.015V71.275z
			 M113.946,81.338h1.122c1.886,0,2.246-0.889,2.246-1.582c0-0.756-0.421-1.645-2.214-1.645h-1.154V81.338z"/>
		<path fill="#536161" d="M134.042,77.34c0,3.672-2.65,6.289-6.462,6.289c-3.812,0-6.446-2.617-6.446-6.289
			c0-3.68,2.635-6.33,6.446-6.33C131.392,71.01,134.042,73.66,134.042,77.34z M131.609,77.34c0-2.449-1.667-4.186-4.03-4.186
			c-2.354,0-4.014,1.736-4.014,4.186c0,2.439,1.66,4.17,4.014,4.17C129.942,81.51,131.609,79.779,131.609,77.34z"/>
		<path fill="#536161" d="M145.266,71.275v12.105h-2.37V73.303h-3.516v5.377c0,1.248,0.032,2.893-1.309,4
			c-0.468,0.404-1.232,0.811-2.409,0.811c-0.343,0-0.67-0.049-0.998-0.109v-2.043c0.187,0.047,0.421,0.109,0.67,0.109
			c0.546,0,0.889-0.234,1.084-0.436c0.623-0.617,0.615-1.662,0.615-2.807v-6.93H145.266z"/>
		<path fill="#536161" d="M147.76,71.275h2.339v4.738H152c0.875,0,2.027,0.125,2.963,0.998c0.686,0.615,1.123,1.535,1.123,2.697
			c0,0.818-0.266,1.598-0.654,2.174c-0.906,1.326-2.418,1.498-3.416,1.498h-4.255V71.275z M150.099,81.338h1.387
			c0.422,0,2.168,0,2.168-1.629c0-0.764-0.406-1.676-2.152-1.676h-1.403V81.338z"/>
		<path fill="#536161" d="M159.998,75.959h5.098v-4.684h2.369v12.105h-2.369v-5.395h-5.098v5.395h-2.354V71.275h2.354V75.959z"/>
		<path fill="#536161" d="M172.314,71.275v8.129l6.672-8.395h1.637v12.371h-2.369v-8.162l-6.672,8.396h-1.605v-12.34H172.314z"/>
		<path fill="#536161" d="M183.119,71.275h2.354v10.062h4.77V71.275h2.385v10.062h1.451v4.756h-2.199v-2.713h-8.76V71.275z"/>
		<path fill="#536161" d="M203.369,80.84h-4.863l-1.061,2.541h-2.557l5.238-12.363h1.762l5.098,12.363h-2.525L203.369,80.84z
			 M202.684,78.914L201,74.557l-1.762,4.357H202.684z"/>
		<path fill="#536161" d="M212.629,83.381V71.275h2.355l5.549,8.145v-8.145h2.354v12.105h-2.354l-5.549-8.154v8.154H212.629z
			 M230.074,74.145c0,1.65-1.168,2.867-3.057,2.867c-1.885,0-3.055-1.217-3.055-2.867c0-1.654,1.17-2.869,3.055-2.869
			C228.906,71.275,230.074,72.49,230.074,74.145z M224.336,78.244h5.363v1.559h-5.363V78.244z M225.506,74.145
			c0,0.912,0.625,1.551,1.512,1.551c0.906,0,1.514-0.639,1.514-1.551s-0.607-1.561-1.514-1.561
			C226.131,72.584,225.506,73.232,225.506,74.145z"/>
		<path fill="#536161" d="M239.039,73.303h-4.023l-0.436,1.916c0.217-0.039,0.482-0.078,0.811-0.078
			c2.369,0,4.193,1.482,4.193,4.102c0,2.268-1.387,4.387-4.725,4.387c-0.965,0-2.494-0.139-3.896-1.527l0.764-2.025
			c0.562,0.67,1.574,1.543,3.055,1.543c1.451,0,2.449-0.967,2.449-2.348c0-1.262-0.889-2.424-2.729-2.424
			c-0.639,0-1.465,0.117-2.322,0.779h-0.156l1.418-6.352h5.598V73.303z"/>
		<path fill="#536161" d="M244.168,79.326c0.201-0.248,1.635-1.861,2.072-2.518c0.328-0.49,0.701-1.238,0.701-1.939
			c0-1.084-0.777-1.832-1.791-1.832c-1.232,0-1.887,0.975-1.918,2.02h-2.447c0.109-2.473,1.869-4.047,4.256-4.047
			c2.807,0,4.256,1.926,4.256,3.844c0,1.861-1.248,3.203-2.182,4.225l-2.09,2.26h4.365v2.043h-8.777L244.168,79.326z"/>
	</g>
	<path fill="#02B7B2" d="M4.358,59.988c0,26.65,21.592,48.258,48.25,48.258c26.643,0,48.235-21.607,48.235-48.258
		c0-26.643-21.592-48.235-48.235-48.235C25.95,11.753,4.358,33.345,4.358,59.988z"/>
	<path fill="#FFFFFF" d="M77.427,49.629c0-12.425-10.079-22.504-22.511-22.504v13.127c5.184,0,9.377,4.202,9.377,9.377
		c0,5.191-4.194,9.385-9.377,9.385v24.398h22.511V68.406H67.356C73.428,64.361,77.427,57.47,77.427,49.629z M29.185,59.551
		c5.184,0,9.385,4.202,9.385,9.386c0,5.182-4.201,9.377-9.385,9.377v13.127c12.44,0,22.511-10.072,22.511-22.504
		c0-7.836-3.999-14.741-10.063-18.764h10.063V35.153H29.185V59.551z"/>
</g>
</svg>
