<svg width="155" height="54" viewBox="0 0 155 54" fill="none" xmlns="http://www.w3.org/2000/svg">
<path fill-rule="evenodd" clip-rule="evenodd" d="M105.62 46.7529L105.602 52.8822H104.387V49.524V49.1906C104.387 49.0769 104.396 48.9719 104.405 48.8752C104.414 48.7789 104.414 48.6999 104.414 48.6388V48.5422H104.405L104.361 48.5945C104.326 48.6295 104.291 48.6735 104.248 48.7259C104.204 48.7789 104.152 48.8315 104.099 48.8929C104.047 48.9539 103.994 49.0153 103.933 49.0769L103.496 49.5153L102.744 48.7875L104.772 46.7529H105.62Z" fill="#0B2F7C"/>
<path fill-rule="evenodd" clip-rule="evenodd" d="M109.534 47.7264C109.202 47.7264 108.922 47.8231 108.695 48.0158C108.468 48.2088 108.354 48.4718 108.354 48.8142C108.354 48.9805 108.389 49.1293 108.45 49.2612C108.511 49.3929 108.598 49.5066 108.703 49.594C108.808 49.6823 108.931 49.7517 109.071 49.7957C109.211 49.84 109.368 49.8657 109.534 49.8657C109.875 49.8657 110.154 49.7694 110.373 49.5763C110.591 49.3836 110.705 49.1209 110.705 48.7965C110.705 48.6212 110.679 48.4635 110.618 48.3318C110.557 48.2001 110.477 48.0858 110.373 47.9894C110.268 47.8931 110.146 47.823 110.006 47.7787C109.866 47.7354 109.717 47.7093 109.551 47.7093L109.534 47.7264ZM110.032 50.6118L110.006 50.5938C109.927 50.6905 109.822 50.7605 109.691 50.8045C109.56 50.8482 109.429 50.8658 109.289 50.8658C108.939 50.8658 108.634 50.8128 108.371 50.6988C108.109 50.5848 107.891 50.4364 107.716 50.2434C107.541 50.0504 107.41 49.8223 107.323 49.568C107.235 49.3142 107.191 49.0419 107.191 48.7528C107.191 48.4281 107.253 48.1388 107.375 47.8751C107.497 47.613 107.663 47.3936 107.873 47.2093C108.083 47.0246 108.336 46.8849 108.625 46.7882C108.913 46.6919 109.228 46.6395 109.569 46.6395C109.892 46.6395 110.198 46.6835 110.486 46.7799C110.775 46.8762 111.029 47.0166 111.238 47.2006C111.448 47.3846 111.614 47.613 111.736 47.8847C111.859 48.1564 111.92 48.4635 111.92 48.8046C111.92 49.1729 111.841 49.5506 111.684 49.9447C111.527 50.3401 111.247 50.7692 110.845 51.2423L109.429 52.8998H108.039L110.032 50.6118Z" fill="#0B2F7C"/>
<path fill-rule="evenodd" clip-rule="evenodd" d="M116.138 46.7529L116.121 52.8822H114.906V49.524V49.1906C114.906 49.0769 114.915 48.9719 114.923 48.8752C114.932 48.7789 114.932 48.6999 114.932 48.6388V48.5422H114.923L114.879 48.5945C114.845 48.6295 114.81 48.6735 114.766 48.7259C114.722 48.7789 114.67 48.8315 114.618 48.8929C114.565 48.9539 114.513 49.0153 114.451 49.0769L114.014 49.5153L113.263 48.7875L115.29 46.7529H116.138Z" fill="#0B2F7C"/>
<path fill-rule="evenodd" clip-rule="evenodd" d="M120.638 47.8494C120.376 47.8494 120.148 47.9024 119.956 48.0071C119.764 48.1124 119.606 48.2528 119.484 48.4281C119.361 48.6035 119.265 48.8142 119.204 49.0592C119.143 49.3046 119.117 49.559 119.117 49.8307C119.117 50.1027 119.152 50.3571 119.213 50.6025C119.274 50.8482 119.37 51.0585 119.493 51.2422C119.615 51.4269 119.772 51.5669 119.965 51.6723C120.157 51.7776 120.384 51.8306 120.647 51.8306C120.909 51.8306 121.136 51.7776 121.328 51.6723C121.521 51.5669 121.678 51.4269 121.8 51.2422C121.923 51.0585 122.019 50.8482 122.08 50.6025C122.141 50.3571 122.176 50.094 122.176 49.8223C122.176 49.5506 122.141 49.287 122.08 49.0419C122.019 48.7965 121.923 48.5858 121.8 48.4105C121.678 48.2354 121.521 48.0951 121.328 47.9894C121.136 47.8847 120.909 47.8317 120.647 47.8317L120.638 47.8494ZM120.638 46.6659C121.075 46.6659 121.468 46.7529 121.818 46.9199C122.167 47.0866 122.465 47.314 122.701 47.6037C122.937 47.8931 123.12 48.2264 123.251 48.6119C123.382 48.9976 123.443 49.41 123.443 49.848C123.443 50.2871 123.382 50.6988 123.251 51.0845C123.12 51.4703 122.937 51.8033 122.701 52.0927C122.465 52.3821 122.167 52.6104 121.818 52.7768C121.468 52.9351 121.075 53.0222 120.638 53.0222C120.201 53.0222 119.807 52.9351 119.458 52.7768C119.108 52.6104 118.811 52.3821 118.566 52.0927C118.322 51.8033 118.138 51.4622 118.015 51.0765C117.893 50.6905 117.832 50.2781 117.832 49.84C117.832 49.401 117.893 48.9895 118.015 48.6035C118.138 48.2174 118.322 47.8751 118.566 47.586C118.811 47.297 119.108 47.0692 119.458 46.9022C119.807 46.7359 120.201 46.6482 120.638 46.6482V46.6659Z" fill="#0B2F7C"/>
<path fill-rule="evenodd" clip-rule="evenodd" d="M2.58656 35.2399L21.2487 50.6359L40.7882 34.4093V2.59477H2.58656V35.2399ZM21.2542 54L0 36.4653V0H43.3745V35.6297L21.2542 54Z" fill="#0B2F7C"/>
<path fill-rule="evenodd" clip-rule="evenodd" d="M18.8124 16.3968L21.6031 19.1966L24.5618 16.2292V10.8562H18.8124V16.3968ZM21.6031 22.1322L16.7432 17.2559V8.7804H26.6311V17.0889L21.6031 22.1322Z" fill="#0B2F7C"/>
<path fill-rule="evenodd" clip-rule="evenodd" d="M18.8124 35.0518H24.5618V29.678L21.6034 26.7108L18.8124 29.511V35.0518ZM26.6311 37.1273H16.7432V28.6512L21.6028 23.7749L26.6311 28.8182V37.1273Z" fill="#0B2F7C"/>
<path fill-rule="evenodd" clip-rule="evenodd" d="M28.2241 20.07L25.4331 22.8696L28.3912 25.838H33.7475V20.07H28.2241ZM22.5068 22.8696L27.3677 17.9945H35.8164V27.9135H27.5342L22.5068 22.8696Z" fill="#0B2F7C"/>
<path fill-rule="evenodd" clip-rule="evenodd" d="M9.62753 20.07V25.838H14.9844L17.9425 22.8699L15.1509 20.07H9.62753ZM7.55859 27.9135V17.9945H16.0079L20.8688 22.8693L15.8414 27.9135H7.55859Z" fill="#0B2F7C"/>
<path fill-rule="evenodd" clip-rule="evenodd" d="M62.8143 44.3806H63.3366V52.9367H61.9153V47.5984L59.4609 50.7546H59.2666L56.8002 47.5984V52.9367H55.3789V44.3806H55.9012L59.3636 48.7928L62.8143 44.3806Z" fill="#0B2F7C"/>
<path fill-rule="evenodd" clip-rule="evenodd" d="M67.8838 51.8761C68.7584 51.864 69.6331 51.2304 69.6331 49.9747C69.6331 48.6951 68.7099 48.0616 67.8106 48.0857C66.936 48.1102 66.0857 48.732 66.0857 49.9747C66.0857 51.2546 66.9848 51.8885 67.8838 51.8761ZM67.8594 53.046C66.3164 53.046 64.7734 52.0223 64.7734 49.9747C64.7734 47.9522 66.28 46.94 67.8106 46.9158C69.378 46.8914 70.9574 47.915 70.9574 49.9747C70.9574 52.0223 69.4024 53.046 67.8594 53.046Z" fill="#0B2F7C"/>
<path fill-rule="evenodd" clip-rule="evenodd" d="M76.6455 49.0122C76.3904 48.3787 75.7709 48.0735 75.0905 48.0735C74.1915 48.0735 73.268 48.7322 73.268 49.9749C73.268 51.2424 74.1794 51.8886 75.0664 51.8886C75.7224 51.8886 76.3784 51.5348 76.6455 50.816H77.9093C77.6054 52.3032 76.3299 53.0344 75.042 53.0344C73.5111 53.0344 71.9561 52.0104 71.9561 49.9749C71.9561 47.9523 73.5111 46.9036 75.03 46.8915C76.3055 46.8797 77.5569 47.574 77.8729 49.0122H76.6455Z" fill="#0B2F7C"/>
<path fill-rule="evenodd" clip-rule="evenodd" d="M81.1063 49.4023C82.5764 49.4023 83.0986 48.4635 83.0986 47.0498H84.3621C84.3745 48.3297 84.0462 49.4633 82.8315 50.0235L84.7145 52.8023V52.9368H83.3293L81.7017 50.4504C81.5192 50.4991 81.2765 50.5111 81.0819 50.5111H80.4988V52.9368H79.1865V47.0622H80.4988V49.4023H81.1063Z" fill="#0B2F7C"/>
<path fill-rule="evenodd" clip-rule="evenodd" d="M88.3004 51.9249C88.8712 51.9249 89.6732 51.9249 89.6732 51.133C89.6732 50.3773 88.8471 50.3284 88.2393 50.3284H87.146V51.9249H88.3004ZM88.1787 49.4268C88.6893 49.4268 89.3452 49.366 89.3452 48.7321C89.3452 48.0859 88.7013 48.0248 88.1787 48.0248H87.146V49.4268H88.1787ZM89.8434 49.7797C90.5599 49.9748 90.9611 50.5598 90.9611 51.2674C90.9611 52.7905 89.5883 52.9485 88.4338 52.9485H85.8584V47.0498H88.1058C89.1874 47.0498 90.6451 47.1235 90.6451 48.598C90.6451 49.1222 90.4265 49.5727 89.8434 49.7797Z" fill="#0B2F7C"/>
<path fill-rule="evenodd" clip-rule="evenodd" d="M95.8841 50.4383C95.4467 50.182 94.888 50.0234 94.3655 50.0361C93.7218 50.0485 93.1749 50.4259 93.1749 51.1447C93.1749 51.7299 93.7095 51.9985 94.2441 51.9985C94.9365 51.9985 95.7506 51.6692 95.8841 50.9259V50.4383ZM93.977 53.0461C92.9077 53.0461 91.875 52.3635 91.875 51.2184C91.8385 49.8168 92.8593 49.146 94.1468 49.146C94.7179 49.146 95.3618 49.2922 95.8841 49.5847V48.9998C95.8841 47.4522 93.2478 47.964 92.5189 48.3296L92.3243 47.3788C92.9198 47.0745 93.7095 46.9159 94.4872 46.9159C95.9088 46.9159 97.1719 47.4159 97.1719 49.0366V51.3522C97.1719 51.9009 97.1478 52.2541 97.7794 52.1934L97.8038 52.9485C96.8804 53.1074 96.1639 53.1074 96.1274 51.9496C95.7386 52.7297 94.8028 53.0461 93.977 53.0461Z" fill="#0B2F7C"/>
<path fill-rule="evenodd" clip-rule="evenodd" d="M60.4742 8.3612C61.9057 8.3612 62.7946 9.13421 62.7946 10.3785C62.7946 11.6041 61.8841 12.3957 60.4727 12.3957C59.7902 12.4078 59.0588 12.4041 58.3432 12.3994C58.0193 12.3979 57.6999 12.396 57.3892 12.3957V8.3612H60.4742ZM65.0331 10.3602C65.0331 7.92218 63.2859 6.40777 60.4742 6.40777H57.3892V3.54128H63.9771V1.49707H55.1328V14.4399H60.4742C63.2433 14.4399 65.0331 12.8388 65.0331 10.3602Z" fill="#0B2F7C"/>
<path fill-rule="evenodd" clip-rule="evenodd" d="M68.4202 9.92178C68.4202 8.07213 69.6781 7.20928 70.9249 7.17458L70.9975 7.17334C72.2362 7.17334 73.5698 8.03341 73.5698 9.92178C73.5698 11.7981 72.2535 12.6705 71.0308 12.6876L70.9938 12.6879C69.7534 12.6879 68.4202 11.8222 68.4202 9.92178ZM70.995 14.6041C73.2693 14.6041 75.7175 13.139 75.7175 9.92178C75.7175 6.71697 73.2743 5.25708 71.0036 5.25708L70.9209 5.2577C68.691 5.29333 66.291 6.76809 66.291 9.92178C66.291 13.139 68.7296 14.6041 70.995 14.6041Z" fill="#0B2F7C"/>
<path fill-rule="evenodd" clip-rule="evenodd" d="M79.4128 14.4219H81.5058V7.37528H84.3438V5.47668H76.5928V7.37528H79.4128V14.4219Z" fill="#0B2F7C"/>
<path fill-rule="evenodd" clip-rule="evenodd" d="M88.0221 10.807H88.8134C89.179 10.807 89.4783 10.7806 89.7059 10.728L92.1362 14.44H94.3364V14.132L91.5559 10.0284C93.1143 9.26994 93.8302 7.84073 93.8086 5.53998V5.4585H91.7523V5.5406C91.7523 7.85591 90.8026 8.98181 88.8507 8.98181H88.0221V5.47678H85.8936V14.44H88.0221V10.807Z" fill="#0B2F7C"/>
<path fill-rule="evenodd" clip-rule="evenodd" d="M102.018 9.2371V14.44H104.093V5.4585H103.359L97.9778 10.6601V5.47678H95.8848V14.4585H96.5457L102.018 9.2371Z" fill="#0B2F7C"/>
<path fill-rule="evenodd" clip-rule="evenodd" d="M108.588 10.7527H112.664V14.4399H114.757V5.47668H112.664V8.85407H108.588V5.47668H106.514V14.4399H108.588V10.7527Z" fill="#0B2F7C"/>
<path fill-rule="evenodd" clip-rule="evenodd" d="M121.339 14.5862C123.036 14.5862 125.202 13.6988 125.713 11.1979L125.733 11.0997H123.683L123.663 11.153C123.239 12.2984 122.202 12.7058 121.375 12.7058C120.077 12.7058 118.763 11.7494 118.763 9.92177C118.763 8.10621 120.095 7.15629 121.41 7.15629C122.48 7.15629 123.323 7.66223 123.664 8.51053L123.685 8.56196H125.68L125.659 8.46219C125.225 6.49296 123.543 5.22083 121.369 5.22083L121.32 5.22113C118.991 5.23972 116.634 6.86072 116.634 9.92177C116.634 12.9838 119 14.5862 121.339 14.5862Z" fill="#0B2F7C"/>
<path fill-rule="evenodd" clip-rule="evenodd" d="M129.593 10.807H130.384C130.75 10.807 131.049 10.7806 131.277 10.728L133.682 14.4034L133.707 14.44H135.907V14.132L133.127 10.0284C134.685 9.26994 135.401 7.84073 135.379 5.53998V5.4585H133.324V5.5406C133.324 7.85591 132.374 8.98181 130.421 8.98181H129.593V5.47678H127.464V14.44H129.593V10.807Z" fill="#0B2F7C"/>
<path fill-rule="evenodd" clip-rule="evenodd" d="M140.414 12.8707C139.657 12.8707 138.893 12.5007 138.893 11.6744C138.893 10.5327 139.812 10.1098 140.596 10.0953L140.679 10.0943C141.386 10.0943 142.152 10.3013 142.788 10.6632L142.789 11.3315C142.6 12.3889 141.425 12.8707 140.414 12.8707ZM145.701 13.1628C145.378 13.1963 145.169 13.1523 145.051 13.0324C144.879 12.8607 144.879 12.5128 144.881 12.0729V8.5161C144.881 5.82281 142.65 5.25769 140.777 5.25769C139.567 5.25769 138.373 5.51391 137.501 5.96037L137.445 5.98887L137.77 7.57889L137.866 7.53086C138.334 7.29571 139.497 6.96482 140.616 6.96482C141.606 6.96482 142.788 7.22414 142.788 8.46157V9.20019C142.05 8.81663 141.14 8.5982 140.268 8.5982C139.134 8.5982 138.173 8.9452 137.562 9.57538C137.021 10.1315 136.758 10.8757 136.783 11.7841C136.783 13.6158 138.447 14.6041 140.012 14.6041C141.118 14.6041 142.487 14.219 143.17 13.1566C143.271 14.131 143.753 14.5694 144.707 14.5694C145.061 14.5694 145.454 14.5093 145.759 14.4573L145.829 14.4455L145.787 13.1545L145.701 13.1628Z" fill="#0B2F7C"/>
<path fill-rule="evenodd" clip-rule="evenodd" d="M152.634 7.17452V9.85789H150.878C149.941 9.85789 149.286 9.32128 149.286 8.55292C149.286 7.72848 149.925 7.17452 150.878 7.17452H152.634ZM150.314 5.47668C148.474 5.49434 147.138 6.77268 147.138 8.51605C147.138 9.68037 147.89 10.7685 148.98 11.201L146.754 14.0888L146.738 14.1111V14.4399H148.991L151.102 11.6106H152.634V14.4399H154.8V5.47668H150.314Z" fill="#0B2F7C"/>
<path fill-rule="evenodd" clip-rule="evenodd" d="M60.4742 28.4457C61.9057 28.4457 62.7946 29.2187 62.7946 30.4633C62.7946 31.6886 61.8841 32.4802 60.4727 32.4802C59.7902 32.4926 59.0588 32.4883 58.3432 32.4846C58.0193 32.4827 57.6999 32.4806 57.3892 32.4802V28.4457H60.4742ZM65.0331 30.445C65.0331 28.007 63.2859 26.4926 60.4742 26.4926H57.3892V23.6261H63.9771V21.5819H55.1328V34.5251H60.4742C63.2433 34.5251 65.0331 32.9236 65.0331 30.445Z" fill="#0B2F7C"/>
<path fill-rule="evenodd" clip-rule="evenodd" d="M68.4202 30.0067C68.4202 28.157 69.6781 27.2939 70.9249 27.2592L70.9975 27.2582C72.2362 27.2582 73.5698 28.118 73.5698 30.0067C73.5698 31.8827 72.2535 32.7554 71.0308 32.7725L70.9938 32.7728C69.7534 32.7728 68.4202 31.9068 68.4202 30.0067ZM70.995 34.6893C73.2693 34.6893 75.7175 33.2239 75.7175 30.0067C75.7175 26.8019 73.2743 25.3417 71.0036 25.3417L70.9209 25.3426C68.691 25.3782 66.291 26.8527 66.291 30.0067C66.291 33.2239 68.7296 34.6893 70.995 34.6893Z" fill="#0B2F7C"/>
<path fill-rule="evenodd" clip-rule="evenodd" d="M77.7832 34.6233C79.7833 34.6233 80.27 33.4658 80.468 31.3302L80.8788 27.4782H83.7448V34.5251H85.8558V25.5613H79.0223L78.3586 31.2391C78.2332 32.3579 78.1223 32.9422 77.1393 32.9422C76.9907 32.9422 76.82 32.9282 76.6316 32.9013L76.5408 32.8883L76.5 34.5139L76.572 34.5238C77.038 34.5914 77.4342 34.6233 77.7832 34.6233Z" fill="#0B2F7C"/>
<path fill-rule="evenodd" clip-rule="evenodd" d="M90.3519 29.9794H91.9983C92.9103 29.9794 93.8832 30.3564 93.8832 31.4126C93.8832 32.4691 92.9103 32.8455 91.9983 32.8455H90.3519V29.9794ZM90.3519 28.3001V25.5613H88.2783V34.5251H92.0178C94.4953 34.5251 95.9744 33.3614 95.9744 31.4126C95.9744 29.4344 94.5389 28.3001 92.0357 28.3001H90.3519Z" fill="#0B2F7C"/>
<path fill-rule="evenodd" clip-rule="evenodd" d="M103.765 28.939H99.6881V25.5613H97.6143V34.5251H99.6881V30.8376H103.765V34.5251H105.858V25.5613H103.765V28.939Z" fill="#0B2F7C"/>
<path fill-rule="evenodd" clip-rule="evenodd" d="M110.372 25.5613H108.279V34.5434H108.941L114.413 29.3219V34.5251H116.487V25.5433H115.753L110.372 30.7446V25.5613Z" fill="#0B2F7C"/>
<path fill-rule="evenodd" clip-rule="evenodd" d="M124.55 25.5613V32.5899H120.965V25.5613H118.908V34.5251H125.842V36.5148H127.659L127.755 32.791H126.606V25.5613H124.55Z" fill="#0B2F7C"/>
<path fill-rule="evenodd" clip-rule="evenodd" d="M132.459 32.9553C131.703 32.9553 130.939 32.5857 130.939 31.7591C130.939 30.6174 131.857 30.1951 132.644 30.1802L132.726 30.1793C133.434 30.1793 134.199 30.3863 134.834 30.7481L134.835 31.4161C134.646 32.4739 133.471 32.9553 132.459 32.9553ZM132.823 25.3427C131.613 25.3427 130.419 25.5989 129.547 26.0453L129.491 26.0738L129.817 27.6635L129.911 27.6158C130.381 27.381 131.542 27.0495 132.662 27.0495C133.652 27.0495 134.834 27.3094 134.834 28.5462V29.2855C134.096 28.9016 133.186 28.6832 132.314 28.6832C131.18 28.6832 130.218 29.0302 129.607 29.66C129.066 30.2165 128.805 30.9604 128.829 31.8688C128.829 33.7008 130.493 34.6894 132.059 34.6894C133.165 34.6894 134.533 34.3034 135.216 33.2416C135.318 34.216 135.8 34.6544 136.753 34.6544C137.106 34.6544 137.5 34.5943 137.805 34.5419L137.875 34.5305L137.834 33.2394L137.747 33.2478C137.424 33.2809 137.215 33.2369 137.097 33.1177C136.925 32.9454 136.926 32.5978 136.926 32.1578V28.6011C136.926 25.9078 134.695 25.3427 132.823 25.3427Z" fill="#0B2F7C"/>
</svg>
