<?xml version="1.0" encoding="UTF-8" standalone="no"?>
<svg
   xmlns:dc="http://purl.org/dc/elements/1.1/"
   xmlns:cc="http://creativecommons.org/ns#"
   xmlns:rdf="http://www.w3.org/1999/02/22-rdf-syntax-ns#"
   xmlns:svg="http://www.w3.org/2000/svg"
   xmlns="http://www.w3.org/2000/svg"
   xmlns:xlink="http://www.w3.org/1999/xlink"
   id="svg36632"
   version="1.1"
   viewBox="0 0 30.691666 12.964584"
   height="49"
   width="116">
  <defs
     id="defs36626">
    <linearGradient
       y2="574.01581"
       x2="76.024544"
       y1="574.01581"
       x1="105.55963"
       gradientTransform="translate(0,-210)"
       gradientUnits="userSpaceOnUse"
       id="gr58"
       xlink:href="#grG" />
    <linearGradient
       id="grG">
      <stop
         id="stop41654"
         offset="0"
         style="stop-color:#15af97;stop-opacity:1;" />
      <stop
         id="stop41656"
         offset="1"
         style="stop-color:#127969;stop-opacity:1" />
    </linearGradient>
    <linearGradient
       y2="581.10242"
       x2="98.195007"
       y1="595.98431"
       x1="89.602951"
       gradientTransform="translate(0,-210)"
       gradientUnits="userSpaceOnUse"
       id="gr60"
       xlink:href="#grP" />
    <linearGradient
       id="grP">
      <stop
         id="stop41636"
         offset="0"
         style="stop-color:#bb7cb3;stop-opacity:1;" />
      <stop
         id="stop41638"
         offset="1"
         style="stop-color:#83577d;stop-opacity:1" />
    </linearGradient>
    <linearGradient
       y2="554.17328"
       x2="95.740135"
       y1="537.16541"
       x1="85.920631"
       gradientTransform="translate(0,-210)"
       gradientUnits="userSpaceOnUse"
       id="gr62"
       xlink:href="#grO" />
    <linearGradient
       id="grO">
      <stop
         id="stop41620"
         offset="0"
         style="stop-color:#f07d00;stop-opacity:1;" />
      <stop
         id="stop41622"
         offset="1"
         style="stop-color:#b9120c;stop-opacity:1" />
    </linearGradient>
    <linearGradient
       y2="582.51971"
       x2="56.462132"
       y1="591.02368"
       x1="71.191383"
       gradientTransform="translate(0,-210)"
       gradientUnits="userSpaceOnUse"
       id="gr64"
       xlink:href="#grP" />
    <linearGradient
       y2="554.17328"
       x2="105.55963"
       y1="574.01581"
       x1="105.55963"
       gradientTransform="translate(0,-210)"
       gradientUnits="userSpaceOnUse"
       id="gr66"
       xlink:href="#grG" />
    <linearGradient
       y2="551.72076"
       x2="44.354847"
       y1="541.57953"
       x1="62.805565"
       gradientTransform="translate(0,-210)"
       gradientUnits="userSpaceOnUse"
       id="gr68"
       xlink:href="#grO" />
  </defs>
  <metadata
     id="metadata36629">
    <rdf:RDF>
      <cc:Work
         rdf:about="">
        <dc:format>image/svg+xml</dc:format>
        <dc:type
           rdf:resource="http://purl.org/dc/dcmitype/StillImage" />
        <dc:title></dc:title>
      </cc:Work>
    </rdf:RDF>
  </metadata>
  <g
     transform="translate(0,-284.03541)">
    <g
       transform="matrix(0.53445911,0,0,0.53445911,1.4329146e-7,138.07856)">
      <path
         d="m 26.230136,281.72796 h 0.437019 v -2.54467 l 0.87539,1.72328 h 0.218175 l 0.858554,-1.72328 v 2.54467 h 0.487527 v -3.26942 h -0.53803 l -0.874717,1.7716 -0.925892,-1.7716 h -0.538026 z m 4.609936,-2.3192 c -0.336687,0 -0.58853,0.12885 -0.756875,0.30601 -0.252516,0.24158 -0.286183,0.61201 -0.286183,0.8697 0,0.2899 0.03368,0.64422 0.286183,0.90191 0.168345,0.14494 0.420188,0.306 0.756875,0.306 0.353522,0 0.606042,-0.16106 0.757551,-0.306 0.251843,-0.25769 0.285511,-0.61201 0.285511,-0.90191 0,-0.25769 -0.03368,-0.62812 -0.285511,-0.8697 -0.151509,-0.17716 -0.404029,-0.30601 -0.757551,-0.30601 z m 0.589206,1.28845 c 0,0.20936 0,0.45095 -0.185177,0.62811 -0.05051,0.0644 -0.185181,0.16106 -0.404029,0.16106 -0.202013,0 -0.319855,-0.0966 -0.404026,-0.16106 -0.167672,-0.17716 -0.167672,-0.41875 -0.167672,-0.62811 v -0.19327 c 0,-0.22548 0,-0.45096 0.167672,-0.64422 0.08417,-0.0483 0.202013,-0.14495 0.404026,-0.14495 0.218848,0 0.353522,0.0966 0.404025,0.14495 0.185181,0.19326 0.185181,0.41874 0.185181,0.64422 z m 2.708993,0.57979 c -0.06733,0.0483 -0.168341,0.0805 -0.269347,0.11274 -0.134678,0.0483 -0.218849,0.0644 -0.353527,0.0644 -0.08417,0 -0.336686,-0.0161 -0.487522,-0.14495 -0.168346,-0.17716 -0.168346,-0.38653 -0.168346,-0.56369 v -0.32211 c 0,-0.17716 -0.03368,-0.45095 0.218849,-0.61201 0.08417,-0.0644 0.20134,-0.0966 0.336013,-0.0966 0.15151,0 0.286188,0.0322 0.336691,0.11274 0.101006,0.0966 0.101006,0.22547 0.101006,0.35432 l 0.387189,-0.0161 c 0.08418,-0.24158 -0.01682,-0.51538 -0.269347,-0.62812 -0.134678,-0.0805 -0.370358,-0.12884 -0.521867,-0.12884 -0.235684,0 -0.504359,0.0644 -0.672704,0.19326 -0.353522,0.25769 -0.404025,0.70865 -0.404025,1.01465 0,0.19327 0.03368,0.64422 0.387189,0.95023 0.202013,0.17716 0.470691,0.22547 0.68954,0.22547 0.218848,0 0.387189,-0.0483 0.538699,-0.0966 0.101006,-0.0322 0.218848,-0.0966 0.286187,-0.12885 z m 1.127237,-1.80381 h -0.420861 v 2.25477 h 0.420861 v -1.04686 h 0.353522 c 0.06733,0 0.168345,0.0161 0.252516,0.0805 0.06666,0.0644 0.100333,0.16105 0.150836,0.25768 l 0.336687,0.70865 h 0.471364 l -0.387189,-0.83749 c 0,0 -0.06734,-0.14495 -0.168346,-0.24158 -0.08417,-0.0805 -0.168345,-0.11274 -0.252516,-0.11274 v -0.0161 c 0.08417,-0.0161 0.15151,-0.0805 0.202013,-0.11274 0.08417,-0.0966 0.117842,-0.17716 0.134674,-0.25769 l 0.08418,-0.22547 c 0.03368,-0.0966 0.08417,-0.14495 0.101006,-0.16106 0.01682,-0.0161 0.0505,-0.0161 0.08417,-0.0161 0.03368,0 0.08418,0 0.117842,0.0161 l 0.06734,-0.2899 c -0.08417,-0.0483 -0.185181,-0.0644 -0.269351,-0.0644 -0.06734,0 -0.117842,0.0161 -0.185181,0.0483 -0.08417,0.0322 -0.185177,0.11274 -0.269348,0.35432 l -0.08417,0.25769 c -0.03368,0.0805 -0.06734,0.16105 -0.117165,0.22547 -0.101007,0.0644 -0.218849,0.0644 -0.303024,0.0644 h -0.31985 z m 2.978345,-0.0644 c -0.353522,0 -0.606038,0.12885 -0.757552,0.30601 -0.251843,0.24158 -0.28551,0.61201 -0.28551,0.8697 0,0.2899 0.03368,0.64422 0.28551,0.90191 0.151514,0.14494 0.40403,0.306 0.757552,0.306 0.336686,0 0.588529,-0.16106 0.740038,-0.306 0.252521,-0.25769 0.303024,-0.61201 0.303024,-0.90191 0,-0.25769 -0.0505,-0.62812 -0.303024,-0.8697 -0.151509,-0.17716 -0.403352,-0.30601 -0.740038,-0.30601 z m 0.571698,1.28845 c 0,0.20937 0,0.45095 -0.168346,0.62811 -0.06667,0.0644 -0.20134,0.16106 -0.403352,0.16106 -0.218849,0 -0.336691,-0.0966 -0.404025,-0.16106 -0.185182,-0.17716 -0.185182,-0.41874 -0.185182,-0.62811 v -0.19327 c 0,-0.22548 0,-0.45096 0.185182,-0.64422 0.06733,-0.0483 0.185176,-0.14495 0.404025,-0.14495 0.202012,0 0.336686,0.0966 0.403352,0.14495 0.168346,0.19326 0.168346,0.41874 0.168346,0.64422 z m 1.077402,1.03075 h 1.059893 c 0.185181,0 0.437024,-0.0161 0.622201,-0.17716 0.151509,-0.14495 0.218848,-0.30601 0.218848,-0.46706 0,-0.14495 -0.03368,-0.2738 -0.134673,-0.35432 -0.08418,-0.0966 -0.202013,-0.16106 -0.319182,-0.19327 v 0 c 0.100333,-0.0161 0.184504,-0.0805 0.268679,-0.19327 0.06733,-0.0966 0.101006,-0.22547 0.101006,-0.33821 0,-0.16106 -0.06734,-0.2899 -0.168345,-0.37043 -0.167673,-0.16105 -0.420189,-0.16105 -0.554862,-0.16105 h -1.093565 z m 0.437019,-1.96488 h 0.555539 c 0.06733,0 0.185177,1e-5 0.286183,0.0805 0.101007,0.0483 0.117843,0.14495 0.117843,0.24159 0,0.0966 -0.01682,0.19326 -0.101007,0.24158 -0.101006,0.0966 -0.235684,0.0966 -0.319855,0.0966 h -0.538703 z m 0,0.96634 h 0.589207 c 0.134673,0 0.23568,0.0322 0.319854,0.0644 0.06734,0.0805 0.101007,0.17716 0.101007,0.2899 0,0.12884 -0.0505,0.22547 -0.101007,0.25769 -0.08417,0.0483 -0.202012,0.0966 -0.33669,0.0966 h -0.572371 z m 3.702229,0.54759 c -0.08417,0.0483 -0.151509,0.0805 -0.252515,0.11273 -0.134678,0.0483 -0.25252,0.0644 -0.370358,0.0644 -0.101007,-10e-6 -0.319855,-0.0161 -0.471364,-0.14496 -0.185182,-0.17716 -0.185182,-0.38653 -0.185182,-0.56369 v -0.32211 c 0,-0.17716 -0.01616,-0.45095 0.218849,-0.61201 0.101006,-0.0644 0.202012,-0.0966 0.33669,-0.0966 0.168341,0 0.286184,0.0322 0.353523,0.11274 0.101006,0.0966 0.101006,0.22547 0.08417,0.35432 l 0.386521,-0.0161 c 0.06733,-0.24158 -0.01616,-0.51538 -0.251843,-0.62812 -0.151509,-0.0805 -0.370358,-0.12884 -0.521867,-0.12884 -0.235685,0 -0.505036,0.0644 -0.672704,0.19326 -0.353522,0.25769 -0.420861,0.70865 -0.420861,1.01465 0,0.19327 0.0505,0.64423 0.370357,0.95023 0.235008,0.17716 0.504359,0.22548 0.706372,0.22548 0.218848,0 0.387194,-0.0483 0.555534,-0.0966 0.101007,-0.0322 0.218849,-0.0966 0.268679,-0.12885 z m 1.144069,-1.80382 h -0.437697 v 2.25477 h 0.437697 v -1.04686 h 0.319177 c 0.101007,0 0.168346,0.0161 0.252516,0.0805 0.101006,0.0644 0.134678,0.16105 0.168345,0.25768 l 0.336691,0.70865 h 0.488196 l -0.38719,-0.83749 c 0,0 -0.08418,-0.14495 -0.185181,-0.24158 -0.06733,-0.0805 -0.151509,-0.11274 -0.252516,-0.11274 v -0.0161 c 0.08418,-0.0161 0.168346,-0.0805 0.218849,-0.11274 0.08417,-0.0966 0.101006,-0.17716 0.134673,-0.25769 l 0.08418,-0.22547 c 0.03368,-0.0966 0.0505,-0.14495 0.06733,-0.16106 0.0505,-0.0161 0.08418,-0.0161 0.101006,-0.0161 0.03368,0 0.08418,0 0.134678,0.0161 l 0.0505,-0.2899 c -0.08417,-0.0483 -0.185181,-0.0644 -0.269351,-0.0644 -0.0505,0 -0.117842,0.0161 -0.168346,0.0483 -0.117837,0.0322 -0.185176,0.11274 -0.286183,0.35432 l -0.08417,0.25769 c -0.03368,0.0805 -0.06733,0.16105 -0.134674,0.22548 -0.06734,0.0644 -0.185177,0.0644 -0.269352,0.0644 H 45.17627 Z m 4.088741,0 h -0.454528 l -1.1609,1.73939 v -1.73939 h -0.437697 v 2.25477 h 0.471364 l 1.1609,-1.7555 v 1.7555 h 0.420861 z m 2.793168,0 h -0.454528 l -1.160904,1.73939 v -1.73939 H 50.02189 v 2.25477 h 0.437693 l 1.177735,-1.7555 v 1.7555 h 0.420861 z m -1.6491,-0.98244 c -0.03368,0.0644 -0.03368,0.11274 -0.03368,0.17716 0,0.12885 0.0505,0.25769 0.218848,0.35432 0.117838,0.0805 0.303019,0.0966 0.43702,0.0966 0.134674,0 0.336686,-0.0161 0.454529,-0.0966 0.168345,-0.0966 0.202012,-0.22547 0.202012,-0.35432 0,-0.0644 0,-0.11274 -0.01682,-0.17716 l -0.336691,0.0483 c 0.03368,0.0805 0,0.17716 -0.08417,0.24158 -0.0505,0.0322 -0.134678,0.0483 -0.218849,0.0483 -0.06734,0 -0.167672,-0.0161 -0.218175,-0.0483 -0.06733,-0.0644 -0.101007,-0.16105 -0.06733,-0.24158 z"
         fill="#141515"/>
      <path
         d="m 26.582985,284.39225 h -0.437024 v 2.27088 h 0.437024 v -1.04686 h 0.319855 c 0.101006,0 0.168341,0.0322 0.252515,0.0805 0.101007,0.0644 0.134674,0.14495 0.168346,0.25768 l 0.336686,0.70865 h 0.487527 l -0.387194,-0.83749 c 0,0 -0.0835,-0.14495 -0.184504,-0.24158 -0.06734,-0.0644 -0.151509,-0.11274 -0.252515,-0.12885 v 0 c 0.08417,-0.0322 0.151509,-0.0805 0.218844,-0.12884 0.08417,-0.0805 0.101006,-0.17716 0.134678,-0.24158 l 0.0835,-0.22548 c 0.03368,-0.0966 0.0505,-0.12884 0.06734,-0.14495 0.03368,-0.0322 0.06733,-0.0483 0.101007,-0.0483 0.03368,0 0.06733,0.0161 0.134673,0.0483 l 0.0505,-0.306 c -0.08417,-0.0322 -0.185177,-0.0483 -0.269352,-0.0483 -0.0505,0 -0.117838,0 -0.167668,0.0322 -0.117842,0.0322 -0.202013,0.0966 -0.286188,0.35432 l -0.08417,0.25769 c -0.03368,0.0644 -0.06734,0.14495 -0.134678,0.20938 -0.06733,0.0805 -0.185177,0.0966 -0.269347,0.0966 h -0.319855 z m 3.769564,0 h -1.480755 v 0.37043 c 0,0.14495 -0.01682,0.61201 -0.01682,0.83748 -0.01682,0.22548 -0.03368,0.53148 -0.218849,0.66033 -0.08417,0.0805 -0.252515,0.12884 -0.336686,0.12884 l 0.08417,0.33822 c 0.168345,0 0.33669,-0.0644 0.454528,-0.12884 0.268679,-0.14495 0.319182,-0.43485 0.369685,-0.70865 0.01682,-0.19326 0.03368,-0.66032 0.03368,-0.91801 v -0.24158 h 0.690212 v 1.93266 h 0.420861 z m 2.793168,0 h -0.454529 l -1.17774,1.7555 v -1.7555 h -0.420861 v 2.27088 h 0.471365 l 1.144068,-1.7555 v 1.7555 h 0.437697 z m 2.641658,0 h -0.404029 v 0.93412 h -1.059894 v -0.93412 h -0.437697 v 2.27088 h 0.437697 v -1.01465 h 1.059894 v 1.01465 h 0.404029 z m 2.793164,0 h -0.454528 l -1.1609,1.7555 v -1.7555 H 36.54425 v 2.27088 h 0.437692 l 1.17774,-1.7555 v 1.7555 h 0.420857 z m 2.372307,0 h -0.420857 v 1.06296 c -0.185181,0.0644 -0.319854,0.0805 -0.437697,0.0805 -0.117169,0 -0.28551,-0.0161 -0.386516,-0.0966 -0.101007,-0.0966 -0.117842,-0.20937 -0.117842,-0.25769 v -0.78917 h -0.420861 v 0.72475 c 0,0.19327 0.03368,0.40264 0.202012,0.54759 0.185177,0.14495 0.4882,0.16105 0.622874,0.16105 0.117169,0 0.336013,-0.0161 0.53803,-0.0644 v 0.90191 h 0.420857 z m 1.093565,1.22402 h 1.447087 v -0.0805 c 0,-0.38653 -0.01682,-0.67643 -0.252516,-0.91801 -0.151509,-0.16105 -0.387193,-0.25769 -0.689539,-0.25769 -0.319851,0 -0.572371,0.12884 -0.72388,0.2899 -0.23568,0.25769 -0.269348,0.61201 -0.269348,0.83749 0,0.27379 0.03368,0.64422 0.286183,0.90191 0.15151,0.17716 0.420862,0.32211 0.841723,0.32211 0.167672,0 0.336013,-0.0161 0.538026,-0.0966 0.08417,-0.0322 0.202012,-0.0966 0.286187,-0.12884 l -0.134678,-0.25769 c -0.08417,0.0322 -0.168341,0.0644 -0.269347,0.11274 -0.134678,0.0322 -0.235684,0.0483 -0.369685,0.0483 -0.235685,0 -0.420861,-0.0805 -0.538703,-0.19327 -0.08417,-0.0644 -0.15151,-0.24158 -0.15151,-0.49927 z m 0,-0.2899 v -0.0322 c 0,-0.2738 0.06734,-0.41874 0.15151,-0.49927 0.0505,-0.0644 0.168345,-0.14495 0.353522,-0.14495 0.134678,0 0.235011,0.0161 0.319182,0.11274 0.151509,0.12884 0.151509,0.32211 0.151509,0.46706 v 0.0966 z m 3.667885,0.90191 c -0.08417,0.0322 -0.185177,0.0644 -0.268679,0.11274 -0.134674,0.0322 -0.252516,0.0483 -0.370354,0.0483 -0.101006,0 -0.33669,-0.0161 -0.4882,-0.14495 -0.168345,-0.17716 -0.168345,-0.37043 -0.168345,-0.5798 v -0.306 c 0,-0.16106 -0.01682,-0.46707 0.202013,-0.61202 0.101006,-0.0644 0.218848,-0.0966 0.353522,-0.0966 0.151514,0 0.269351,0.0322 0.353526,0.11274 0.101006,0.0966 0.101006,0.22548 0.06733,0.35432 l 0.403352,-0.0322 c 0.06734,-0.24158 -0.01682,-0.48316 -0.269347,-0.62811 -0.150837,-0.0644 -0.352849,-0.0966 -0.521195,-0.0966 -0.218848,0 -0.4882,0.0483 -0.673376,0.17717 -0.336018,0.25768 -0.403353,0.69253 -0.403353,1.01464 0,0.17716 0.03368,0.64422 0.369681,0.93412 0.235684,0.17716 0.505036,0.22548 0.690213,0.22548 0.235684,0 0.387193,-0.0161 0.571697,-0.0966 0.08417,-0.0322 0.202013,-0.0966 0.286188,-0.12885 z m 1.111073,-1.83603 h -0.420861 v 2.27088 h 0.420861 v -1.04686 h 0.35285 c 0.08417,0 0.151509,0.0322 0.252516,0.0805 0.06734,0.0644 0.117842,0.14495 0.151509,0.25769 l 0.353522,0.70864 h 0.453856 l -0.386517,-0.83749 c 0,0 -0.0505,-0.14495 -0.168345,-0.24158 -0.08417,-0.0644 -0.15151,-0.11274 -0.252516,-0.12885 v 0 c 0.101006,-0.0322 0.151509,-0.0805 0.218848,-0.12884 0.06733,-0.0805 0.117838,-0.17716 0.134674,-0.24158 l 0.06734,-0.22548 c 0.0505,-0.0966 0.08417,-0.12884 0.101006,-0.14495 0.01682,-0.0322 0.0505,-0.0483 0.101007,-0.0483 0.01682,0 0.06666,0.0161 0.117169,0.0483 l 0.0505,-0.306 c -0.06734,-0.0322 -0.167672,-0.0483 -0.268679,-0.0483 -0.0505,0 -0.117842,0 -0.168345,0.0322 -0.101006,0.0322 -0.202013,0.0966 -0.269352,0.35432 l -0.101006,0.25769 c -0.01682,0.0644 -0.06733,0.14495 -0.134673,0.20937 -0.08418,0.0805 -0.202013,0.0966 -0.269352,0.0966 h -0.336014 z m 4.122414,0 h -0.471365 l -1.160904,1.75551 v -1.75551 h -0.420861 l 5e-6,2.27088 h 0.437692 l 1.177736,-1.7555 v 1.7555 h 0.437697 z m 2.775659,0 h -0.470691 l -1.144069,1.75551 v -1.75551 H 51.67099 v 2.27088 h 0.454528 l 1.177736,-1.7555 v 1.7555 h 0.420188 z m -1.665263,-0.95022 c -0.01682,0.0483 -0.01682,0.11274 -0.01682,0.16105 0,0.12885 0.03368,0.25769 0.218844,0.35432 0.117169,0.0644 0.302346,0.0966 0.437024,0.0966 0.134674,0 0.336686,-0.0322 0.454528,-0.0966 0.168346,-0.0966 0.202013,-0.22548 0.202013,-0.35433 0,-0.0483 0,-0.11274 -0.01682,-0.16105 l -0.353522,0.0322 c 0.0505,0.0966 0,0.19327 -0.06733,0.24158 -0.06734,0.0322 -0.134678,0.0644 -0.218849,0.0644 -0.06734,0 -0.168345,-0.0322 -0.235684,-0.0644 -0.0505,-0.0483 -0.08417,-0.14495 -0.0505,-0.24158 z"
         fill="#141515"/>
      <path
         d="m 28.046904,289.32745 h -0.403353 v 0.93412 h -1.060566 v -0.93412 h -0.437024 v 2.28699 h 0.437024 v -1.03076 h 1.060566 v 1.03076 h 0.403357 z m 2.120468,2.28699 h 0.386517 v -1.48171 c 0,-0.22548 0,-0.45096 -0.20134,-0.62812 -0.185181,-0.19326 -0.572371,-0.20937 -0.690213,-0.20937 -0.151509,0 -0.488196,0.0161 -0.689536,0.14495 -0.134678,0.0805 -0.252515,0.22548 -0.202012,0.46706 l 0.386516,0.0161 c 0,-0.11274 0.01682,-0.19327 0.134674,-0.25769 0.101006,-0.0805 0.269352,-0.0805 0.353527,-0.0805 0.101006,0 0.269347,0 0.370353,0.0966 0.101006,0.0966 0.117842,0.19327 0.117842,0.30601 v 0.2738 h -0.370358 c -0.521867,0 -0.756874,0.12884 -0.857881,0.20936 -0.101006,0.0805 -0.252515,0.24159 -0.252515,0.51539 0,0.27379 0.151509,0.41874 0.218848,0.49926 0.168341,0.14495 0.386517,0.16106 0.554862,0.16106 0.185177,0 0.319855,-0.0161 0.454528,-0.0966 0.134674,-0.0483 0.202013,-0.14495 0.269352,-0.22548 h 0.01682 z m -0.03368,-0.5798 c -0.06734,0.0966 -0.134673,0.14495 -0.218848,0.20937 -0.117838,0.0644 -0.218844,0.11274 -0.353522,0.11274 -0.101006,0 -0.218848,-0.0322 -0.319855,-0.0966 -0.101006,-0.0805 -0.117838,-0.17716 -0.117838,-0.2899 0,-0.14495 0.0505,-0.25769 0.117838,-0.2899 0.08418,-0.0805 0.235684,-0.12885 0.505036,-0.12885 h 0.387189 z m 2.540653,-1.70719 -0.420861,1.30455 c -0.06734,0.17716 -0.101007,0.27379 -0.168346,0.53148 h -0.03368 c 0,-0.0644 -0.0505,-0.25769 -0.101006,-0.38653 l -0.605365,-1.4495 h -0.471365 l 0.992555,2.39972 -0.0505,0.16106 c -0.03298,0.0966 -0.0835,0.22548 -0.117165,0.2899 -0.0505,0.0483 -0.134678,0.12884 -0.252516,0.12884 -0.08418,0 -0.15151,-0.0161 -0.235684,-0.0644 -0.03368,-0.0322 -0.08417,-0.0483 -0.117838,-0.0966 l -0.218849,0.25769 c 0.06733,0.0322 0.134674,0.0805 0.218849,0.12884 0.117838,0.0644 0.23568,0.0805 0.370353,0.0805 0.168346,0 0.319855,-0.0483 0.45386,-0.17716 0.101007,-0.0966 0.185177,-0.30601 0.218844,-0.41875 l 0.925893,-2.68962 z m 2.355471,0 h -0.420861 v 1.06297 c -0.167668,0.0644 -0.302346,0.0805 -0.43702,0.0805 -0.117842,0 -0.286187,-0.0161 -0.370358,-0.0966 -0.101006,-0.0966 -0.117842,-0.20937 -0.117842,-0.25769 v -0.78917 h -0.420861 v 0.72475 c 0,0.19327 0.01682,0.40264 0.185181,0.54759 0.202013,0.14495 0.505032,0.17716 0.63971,0.17716 0.117837,0 0.303019,-0.0322 0.52119,-0.0805 v 0.91802 h 0.420861 z m 2.675326,0 h -0.43702 v 0.93412 H 36.20755 v -0.93412 h -0.420183 v 2.28699 h 0.420183 v -1.03076 h 1.060571 v 1.03076 h 0.43702 z m 1.17774,0.83749 v -0.83749 h -0.45386 v 2.28699 h 1.009394 c 0.336687,0 0.555535,-0.0966 0.672704,-0.20938 0.134674,-0.11273 0.23568,-0.306 0.23568,-0.49927 0,-0.20937 -0.08417,-0.40264 -0.23568,-0.53148 -0.235011,-0.17716 -0.53803,-0.20937 -0.756878,-0.20937 z m 0,0.33821 h 0.572366 c 0.168345,0 0.269351,0.0483 0.319855,0.0966 0.101006,0.0805 0.117842,0.19326 0.117842,0.306 0,0.14495 -0.0505,0.24159 -0.08417,0.25769 -0.06734,0.0805 -0.185181,0.11274 -0.33669,0.11274 h -0.589202 z m 1.867944,-1.1757 v 2.28699 h 0.420861 v -2.28699 z m 3.197193,0 h -0.437693 l -1.177735,1.75551 v -1.75551 H 41.91173 v 2.28699 h 0.454528 l 1.160904,-1.7555 v 1.7555 h 0.420857 z m -1.6491,-0.95022 c -0.03368,0.0483 -0.03368,0.0966 -0.03368,0.14495 0,0.12884 0.0505,0.2899 0.218848,0.37043 0.117842,0.0644 0.302346,0.0966 0.453856,0.0966 0.134673,0 0.319854,-0.0322 0.437692,-0.0966 0.168346,-0.0805 0.218849,-0.24159 0.218849,-0.37043 0,-0.0483 0,-0.0966 -0.03368,-0.14495 l -0.33669,0.0161 c 0.03368,0.11274 0,0.20938 -0.06733,0.25769 -0.0505,0.0483 -0.151509,0.0644 -0.218848,0.0644 -0.08417,0 -0.168346,-0.0161 -0.218176,-0.0644 -0.08417,-0.0483 -0.117838,-0.14495 -0.08417,-0.25769 z m 4.929795,0.95022 v 1.94877 H 46.25299 v -1.94877 h -0.420861 v 2.28699 h 1.73327 v 0.61201 h 0.40403 v -0.95023 h -0.303023 v -1.94877 z m 1.56493,1.24013 h 1.447082 v -0.0966 c 0,-0.37043 0,-0.67643 -0.218844,-0.91802 -0.168345,-0.14495 -0.404029,-0.25769 -0.706375,-0.25769 -0.319851,0 -0.555535,0.12885 -0.707045,0.2899 -0.252515,0.2738 -0.269351,0.62812 -0.269351,0.85359 0,0.25769 0.03368,0.62812 0.269351,0.88581 0.168346,0.17716 0.437697,0.32211 0.824887,0.32211 0.184504,0 0.369685,-0.0161 0.554862,-0.0966 0.101006,-0.0322 0.218848,-0.0966 0.286187,-0.12885 l -0.134678,-0.25769 c -0.08417,0.0322 -0.168341,0.0805 -0.286183,0.11274 -0.101006,0.0322 -0.218848,0.0483 -0.352849,0.0483 -0.218849,0 -0.404026,-0.0644 -0.521868,-0.17716 -0.08417,-0.0805 -0.185176,-0.24159 -0.185176,-0.51538 z m 0,-0.30601 v -0.0322 c -5e-6,-0.25769 0.101006,-0.41875 0.16834,-0.48317 0.06734,-0.0805 0.168346,-0.16105 0.353523,-0.16105 0.117842,0 0.235684,0.0322 0.336017,0.11274 0.15151,0.12884 0.15151,0.3221 0.15151,0.46705 v 0.0966 z m 3.937231,-0.93412 h -0.420188 v 0.93412 h -1.04373 v -0.93412 h -0.420188 v 2.28699 h 0.420188 v -1.03075 h 1.04373 v 1.03075 h 0.420188 z m 0.437697,0 v 0.33822 h 0.723208 v 1.94877 h 0.437692 v -1.94877 h 0.72388 v -0.33822 z m 2.742665,3.28553 v -1.09518 c 0.06733,0.0322 0.15151,0.0483 0.218844,0.0966 0.117842,0.0161 0.218849,0.0322 0.369685,0.0322 0.235685,0 0.454529,-0.0483 0.622874,-0.24158 0.269352,-0.25769 0.303019,-0.59591 0.303019,-0.93412 0,-0.22548 -0.01682,-0.56369 -0.185177,-0.82138 -0.202012,-0.25769 -0.454528,-0.35433 -0.673377,-0.35433 -0.134,0 -0.302346,0.0322 -0.403352,0.0644 -0.117842,0.0644 -0.218848,0.14495 -0.303019,0.20937 v -0.24158 H 55.47354 v 3.28552 z m 0,-2.75404 c 0.0505,-0.0644 0.117838,-0.12885 0.185177,-0.17716 0.134674,-0.0644 0.23568,-0.0966 0.336691,-0.0966 0.134,0 0.28551,0.0644 0.386516,0.17716 0.134674,0.14496 0.134674,0.43485 0.134674,0.62812 v 0.16105 c 0,0.17716 0,0.43485 -0.117838,0.61201 -0.08417,0.0966 -0.218848,0.19327 -0.470691,0.19327 -0.134678,0 -0.252516,-0.0483 -0.286188,-0.0644 -0.0505,-0.0161 -0.117838,-0.0483 -0.168341,-0.0966 z"
         fill="#141515"/>
    </g>
    <path
       fill="#141515"
       d="m 2.9774309,291.54393 h 0.2034458 v -1.19563 l 0.4138669,0.80635 h 0.094457 l 0.406892,-0.80635 v 1.19563 h 0.217687 v -1.52929 h -0.239485 l -0.4214236,0.8272 -0.4211329,-0.8272 H 2.9774307 Z m 1.8955342,-1.52929 H 4.6552779 l 2e-7,1.52929 h 0.217687 v -0.72294 h 0.2179776 c 0.065393,0 0.1380527,0.0208 0.1889141,0.0556 0.036039,0.0347 0.057837,0.0904 0.094167,0.16683 l 0.2179776,0.5005 h 0.247041 L 5.592001,290.96001 c -0.043596,-0.0834 -0.1017231,-0.20158 -0.2615733,-0.23634 v -0.007 c 0.1307868,-0.0278 0.1743821,-0.13902 0.203446,-0.21549 l 0.058127,-0.15988 c 0.014532,-0.0486 0.029064,-0.13207 0.079925,-0.16683 0.029064,-0.0139 0.043596,-0.0139 0.058127,-0.0139 0.029064,0 0.043596,0 0.065393,0.0139 l 0.029064,-0.16683 c -0.029064,-0.007 -0.079925,-0.0139 -0.123521,-0.0139 -0.043596,0 -0.094457,0.007 -0.1307865,0.0208 -0.087191,0.0417 -0.1235204,0.13207 -0.1453183,0.20158 l -0.087191,0.2433 c -0.029064,0.0904 -0.072369,0.18769 -0.246751,0.18769 H 4.8729651 Z m 2.3384651,0 H 6.9864769 v 0.63952 H 6.2383774 v -0.63952 H 6.0203999 v 1.52929 h 0.2179775 v -0.71599 h 0.7480995 v 0.71599 h 0.2249533 z m 1.2346257,0 v 1.34855 H 7.7633496 v -1.34855 H 7.5456628 v 1.52929 h 1.0965733 v 0.32671 h 0.2104214 v -0.50745 H 8.6712994 v -1.34855 z" />
    <g
       transform="matrix(0.18854529,0,0,-0.18854529,-8.362897,358.48319)">
      <g>
        <path
           d="m 80.060691,385.74136 -4.736938,-2.65451 21.492721,-12.01903 10e-7,-29.34708 -21.49272,-11.98156 4.736939,-2.6545 26.192666,14.63606 v 29.34708 z"
           style="fill:url(#gr58)" />
        <path
           d="m 101.55341,379.03135 -26.229658,14.67354 -26.269736,-14.67354 0.07692,-29.34707 4.699172,-2.65451 -1e-6,24.03805 26.230583,14.67354 21.49272,-12.01903 z"
           style="fill:url(#gr60)" />
        <path
           d="m 75.323755,335.0482 -26.192818,14.63608 -0.07692,24.03805 -4.699172,-2.6545 2e-6,-29.34708 26.191893,-14.63607 26.269736,14.63606 v 5.30902 z"
           style="fill:url(#gr62)" />
        <path
           d="m 75.400826,393.70489 4.659865,-7.96353 -26.230583,-14.67354 z"
           style="fill:url(#gr64)" />
        <path
           d="m 96.816474,371.06782 h 9.436886 v -29.34708 z"
           style="fill:url(#gr66)" />
        <path
           d="m 75.323755,335.0482 -4.777016,-7.96352 -26.191893,14.63607 z"
           style="fill:url(#gr68)" />
      </g>
    </g>
  </g>
</svg>
