<svg xmlns="http://www.w3.org/2000/svg" height="350" viewBox="0 0 300 350" width="300"><defs><filter id="a"><feGaussianBlur stdDeviation="10" in="SourceAlpha"/><feOffset dx="2" dy="2"/><feComponentTransfer><feFuncA slope=".5" type="linear"/></feComponentTransfer><feMerge><feMergeNode/><feMergeNode in="SourceGraphic"/></feMerge></filter></defs><path filter="url(#a)" fill="#D90000" clip-rule="evenodd" d="M27.908 23.93v245.51c0 25.083 20.33 45.417 45.402 45.417h51.23c10.513 1.885 20.006 9.736 27.315 21.574 7.31-11.837 16.8-19.688 27.315-21.573h53.048c25.07 0 45.4-20.334 45.4-45.416V23.93H27.898z" fill-rule="evenodd"/><g fill="#fff"><path d="M56.9 62.34c9.913-5.698 10.02-18.37 9.69-23.073-1.06-1.02-2.116-1.98-3.144-2.832.622 6.117.757 18.33-6.546 25.906z"/><path d="M49.922 64.232c13.503-6.315 11.48-25.113 10.725-29.896-1.297-.85-2.5-1.44-3.545-1.66-.085-.018-.174-.023-.26-.038 1.28 4.467 5.2 21.673-6.92 31.594zM248.63 62.34c-7.3-7.575-7.167-19.788-6.548-25.905-1.026.854-2.08 1.812-3.142 2.832-.34 4.705-.23 17.374 9.69 23.074zM252.27 56.367c.282.518.586 1.03.92 1.53 8.687-7.146 9.32-14.954 9.144-18.21-.688-.75-1.417-1.472-2.175-2.15.06 4.925-.98 13.248-7.89 18.83zM49.63 61.102c.408-.397.79-.805 1.148-1.222-7.468-6.12-9.575-12.705-10.033-17.132-.298.43-.573.862-.836 1.296.142.22.22.485.2.766-.022.354-.406 8.468 9.52 16.292z"/><path d="M255.64 64.258c-12.157-9.917-8.232-27.148-6.95-31.62-.086.015-.176.02-.262.04-1.046.218-2.253.81-3.554 1.665-.82 4.837-3 23.6 10.76 29.915zM264.78 42.747c-.462 4.43-2.572 11.027-10.057 17.15.36.415.746.82 1.154 1.216 9.942-7.83 9.556-15.954 9.534-16.305-.017-.28.064-.543.204-.763-.24-.434-.52-.868-.82-1.298z"/><path d="M257.52 35.456c-2.064-1.424-4.21-2.43-6.22-2.778-.625 1.896-3.712 12.206-.134 21.333 6.7-5.83 6.66-14.98 6.36-18.554zM52.3 57.87c.333-.504.633-1.02.912-1.542-6.865-5.582-7.907-13.878-7.84-18.79-.766.682-1.5 1.41-2.195 2.168-.2 3.267.418 10.99 9.124 18.164zM228.42 283.26c-.072.012-.144.012-.214.014-.023.002-.047.01-.068.01-.008 0-.015-.004-.02-.004-.137-.002-.27-.018-.4-.05-.01-.003-.02-.01-.03-.013-.116-.03-.228-.078-.334-.135l-.08-.045c-.097-.06-.187-.125-.272-.203l-.05-.043c-.095-.095-.18-.202-.25-.323l-.016-.016c-.017-.03-.03-.065-.044-.097-.028-.06-.06-.115-.08-.176-.02-.06-.034-.117-.05-.176-.01-.038-.023-.073-.03-.116-.003-.008 0-.018-.003-.027-.012-.064-.014-.127-.015-.19 0-.048-.01-.095-.005-.144.002-.05.013-.104.02-.156.01-.055.014-.11.026-.166.01-.044.03-.085.044-.13.02-.057.035-.115.062-.17.02-.05.053-.092.08-.14.024-.044.048-.093.08-.136.028-.04.066-.078.102-.117.035-.043.07-.088.11-.127.026-.025.06-.047.09-.07.055-.045.113-.094.174-.133.005-.002.007-.006.01-.008.2-.14 7.632-5.51 13.12-34.987 5.063-27.195 9.458-81.164 1.64-183.83-.028-.386.08-.747.277-1.047-5.687-6.684-6.07-16.13-5.88-20.625-20.15 1.89-51.094 8.025-83.654 8.025-32.558 0-63.5-6.135-83.652-8.024.192 4.495-.192 13.94-5.88 20.626.198.3.308.66.278 1.047-7.943 104.29-3.31 158.48 1.975 185.58 5.517 28.273 12.685 33.168 12.755 33.21.01.005.017.013.026.02.055.03.104.07.154.11.04.03.08.057.115.09.04.037.07.078.107.12.038.042.077.08.11.126.028.04.05.083.077.126.028.05.06.098.086.15.02.05.038.102.055.15.017.05.038.102.05.152s.017.104.026.158c.01.055.02.11.024.166.002.045-.003.092-.005.14-.003.065-.005.13-.014.194 0 .012 0 .02-.004.03-.006.038-.02.07-.03.11-.014.06-.027.12-.05.182-.02.06-.05.113-.075.168-.018.035-.03.07-.05.105l-.015.02c-.07.118-.154.224-.248.32-.02.02-.045.036-.067.056-.077.07-.16.13-.248.186-.033.02-.066.04-.1.057-.096.05-.196.09-.302.12-.02.006-.04.016-.06.02-.127.032-.258.05-.392.05-.008.002-.014.006-.023.006-.023 0-.047-.01-.07-.01-.072-.004-.142-.004-.212-.016-3.124-.537-5.966-.59-8.537-.318 2.842.404 5.472 2.107 7.58 6.348 6.846 13.77 76.615 18.602 76.615 18.602s69.773-4.83 76.62-18.602c2.106-4.236 4.734-5.94 7.573-6.348-2.58-.27-5.42-.22-8.55.32zM123.75 63.12c-27.647-3.112-46.132-9.4-46.315-9.463-.877-.302-1.346-1.258-1.043-2.136.302-.877 1.26-1.344 2.137-1.042.72.248 73.08 24.536 148.5-.01.885-.285 1.83.196 2.117 1.08.287.883-.195 1.83-1.08 2.118-26.212 8.53-51.913 11.174-73.7 11.174-11.46 0-21.83-.73-30.62-1.72z"/><path d="M256.45 67.298c-.044-.017-.09-.03-.134-.046-.15.062-.308.1-.475.1-.062 0-.127-.003-.192-.014-4.216-.648-7.518-2.086-10.108-3.995 12.085 161.22-5.443 204.94-13.208 216.12 9.813-.467 16.768 3.365 20.94 6.758 2.388.08 4.44-.772 5.887-3.606 22.38-43.82-5.6-159.53-2.71-215.31zM257.83 62.785c.268.203.555.395.84.59 4.736-4.247 8.842-8.74 9.193-11.803.114-.993-.01-2.083-.324-3.22-.79 3.533-3.1 9.082-9.71 14.433zM54.3 53.956c3.512-9.132.502-19.47-.077-21.277-2.005.347-4.148 1.353-6.21 2.774-.3 3.563-.32 12.68 6.287 18.502zM52.255 286.22c4.176-3.393 11.13-7.227 20.94-6.758-7.763-11.18-25.29-54.906-13.206-216.12-2.592 1.91-5.894 3.347-10.108 3.995-.065.01-.13.014-.193.014-.17 0-.328-.038-.476-.1-.044.017-.092.03-.136.047 2.885 55.785-25.096 171.49-2.706 215.31 1.447 2.84 3.496 3.7 5.883 3.62zM46.858 63.373c.282-.196.57-.39.835-.592-6.612-5.35-8.916-10.896-9.706-14.43-.312 1.138-.437 2.228-.324 3.22.354 3.065 4.457 7.555 9.195 11.803z"/></g><path fill="#D90000" clip-rule="evenodd" d="M63.958 161.46c0-49.068 39.755-88.837 88.806-88.837 49.05 0 88.807 39.77 88.807 88.837s-39.757 88.836-88.806 88.836c-49.05 0-88.802-39.77-88.802-88.84z" fill-rule="evenodd"/><g fill="#D90000"><path d="M98.883 268.52c0 4.424-3.407 5.98-8.16 5.98h-5.888v-20.688h5.14c5.083 0 8.13 1.61 8.13 5.29 0 2.51-1.704 3.917-3.676 4.456 2.33.48 4.453 1.68 4.453 4.96zm-9.743-11.59v5.32h1.553c2.062 0 3.018-.955 3.018-2.75 0-1.852-1.043-2.57-3.315-2.57H89.14zm5.318 11.39c0-2.215-1.253-3.14-3.466-3.14H89.14v6.128h1.613c2.242-.01 3.705-.63 3.705-2.99zM114.59 266.58c0 5.203-2.63 8.4-6.962 8.4-4.305 0-6.934-2.99-6.934-8.4 0-5.29 2.6-8.4 6.963-8.4 4.3 0 6.93 2.9 6.93 8.4zm-9.59 0c0 3.855.867 5.29 2.63 5.29s2.66-1.493 2.66-5.29c0-3.857-.896-5.29-2.63-5.29-1.76 0-2.66 1.49-2.66 5.29zM128.4 258.66v15.846h-4.154v-12.74h-2.84l-.33 4.365c-.448 6.128-1.104 7.653-4.9 8.73l-1.016-3.05c1.583-.718 1.82-1.376 2.122-5.92l.478-7.233h10.64zM142.69 269.06c0 3.768-2.54 5.443-6.246 5.443h-5.35v-15.84h4.153v4.992h.808c4.7 0 6.64 1.95 6.64 5.41zm-4.15-.06c0-1.824-.568-2.63-2.45-2.63h-.838v5.32h.986c1.49.01 2.3-.71 2.3-2.69zm9.62-10.34v15.846h-4.153v-15.85h4.15zM159.1 267.99h-4.065v6.52h-4.153v-15.85h4.153v6.248h4.065v-6.248h4.152v15.846h-4.15v-6.52zM177.63 260.06l-1.795 2.393c-.896-.688-1.732-1.047-2.718-1.047-1.854 0-2.93 1.346-2.93 5.262 0 3.857 1.165 4.992 2.9 4.992 1.015 0 1.732-.33 2.718-1.016l1.824 2.48c-1.286 1.137-2.842 1.854-4.755 1.854-4.393 0-7.053-2.96-7.053-8.28 0-5.202 2.72-8.52 6.994-8.52 1.94.02 3.44.65 4.81 1.9zM188.42 266.01l4.154 8.492h-4.333l-3.228-6.938h-1.344v6.938h-4.152v-15.84h4.152v6.248h1.435l3.2-6.248h3.913l-3.79 7.35zM206.48 272.17l-.868 2.75c-1.704-.18-2.81-.777-3.406-2.24-1.076 1.674-2.6 2.3-4.274 2.3-2.868 0-4.663-2-4.663-4.9 0-3.44 2.36-5.323 6.726-5.323h1.404v-.895c0-1.975-.688-2.633-2.392-2.633-1.076 0-2.36.298-3.795.835l-.926-2.72c1.763-.745 3.734-1.165 5.41-1.165 4.004 0 5.796 1.883 5.796 5.47v6.667c-.01 1.14.29 1.55.98 1.85zm-5.08-1.91v-3.14h-.986c-2.063 0-3.02.866-3.02 2.603 0 1.494.628 2.27 1.734 2.27.99 0 1.77-.63 2.28-1.73zM220.69 258.66v15.846h-4.154v-5.68h-1.943l-2.6 5.68h-4.333l3.29-6.697c-1.467-.81-2.273-2.124-2.273-4.067 0-3.287 2.302-5.082 6.665-5.082h5.33zm-4.15 7.56v-4.813h-1.226c-1.673 0-2.42.748-2.42 2.36 0 1.677.687 2.452 2.33 2.452h1.32zM118.75 288.36c0 4.172-2.118 6.29-5.287 6.29s-5.36-2.022-5.36-7.36c0-5.41 1.023-7.816 4.597-9.15 1.763-.645 2.478-1 3.69-1.74l1.145 1.93c-.977.668-1.978 1.168-3.597 1.787-1.88.715-2.667 1.525-2.954 4.504.763-1.31 1.907-2.097 3.502-2.097 2.41 0 4.27 2 4.27 5.84zm-3.12.1c0-2.885-.716-3.67-1.905-3.67-.977 0-1.908.596-2.5 1.977v1.574c0 2.907.832 4.052 2.212 4.052 1.25 0 2.2-.64 2.2-3.93zM130.21 287.98c0 4.1-2.026 6.672-5.408 6.672-3.384 0-5.433-2.43-5.433-6.672 0-4.17 2.024-6.648 5.432-6.648 3.39 0 5.41 2.34 5.41 6.65zm-7.72 0c0 3.17.786 4.41 2.31 4.41 1.525 0 2.312-1.266 2.312-4.41 0-3.168-.787-4.385-2.31-4.385-1.52 0-2.31 1.24-2.31 4.38zM140.48 281.69v12.605h-2.98v-10.342h-2.57l-.286 3.885c-.358 4.717-.858 5.883-3.717 6.742l-.738-2.217c1.285-.57 1.452-1.143 1.714-4.717l.382-5.957h8.2zM151.46 289.98c0 3.002-2.072 4.314-4.884 4.314h-4.288V281.69h2.978v4h.93c3.76.01 5.26 1.61 5.26 4.3zm-3.07-.05c0-1.498-.5-2.238-2.143-2.238h-.977v4.527h1.095c1.29 0 2.03-.59 2.03-2.29zM159.23 289.01h-3.598v5.29h-2.98v-12.604h2.98v5.05h3.598v-5.05h2.98V294.3h-2.98v-5.29zM173.67 294.3h-2.79v-5.123c0-2.074.24-3.6.43-4.46l-4.17 9.583h-3.12v-12.605h2.813v5.123c0 2-.215 3.598-.43 4.432l4.122-9.555h3.146v12.6zM186.56 292.03v6.027h-2.12l-.36-3.764h-8.598v-12.605h2.978v10.316h3.406v-10.316h2.978v10.342h1.71zM197.42 292.63l-.618 1.977c-1.312-.143-2.17-.596-2.598-1.785-.835 1.31-2.048 1.832-3.383 1.832-2.284 0-3.692-1.572-3.692-3.885 0-2.716 1.858-4.218 5.29-4.218h1.262v-.787c0-1.62-.62-2.19-2.025-2.19-.88 0-1.904.237-3.05.644l-.69-1.98c1.43-.596 2.907-.906 4.217-.906 3.074 0 4.48 1.525 4.48 4.268v5.525c-.01.96.25 1.29.8 1.53zm-3.74-1.69v-2.62h-.954c-1.763 0-2.618.737-2.618 2.24 0 1.286.57 1.93 1.523 1.93.89 0 1.58-.55 2.05-1.55z"/></g><path fill="#fff" d="M224.66 192.86v-62.8l-65.08 24.58 24.57-65.1-62.77.003 24.57 65.097-65.08-24.58.002 62.8 65.078-24.58-24.57 65.1h62.77l-24.57-65.1"/></svg>